STARTFONT 2.1
FONT -FontForge-Helvetica Neue-Book-R-Normal--18-170-75-75-P-92-ISO10646-1
SIZE 17 75 75
FONTBOUNDINGBOX 16 18 0 -4
COMMENT "Generated by fontforge, http://fontforge.sourceforge.net"
COMMENT "Copyright (c) 1981, 1982, 1983, 1989 and 1993, Linotype Library GmbH or its affiliated Linotype-Hell companies. All rights reserved."
COMMENT ""
COMMENT "The digitally encoded machine readable software for producing the Typefaces licensed to you is now the property of Heidelberger Druckmaschinen AG and its licensors, and may not be reproduced, used, displayed, modified, disclosed or transferred without the express written approval of Heidelberger Druckmaschinen AG."
COMMENT ""
COMMENT "Copyright (c) 1988, 1990, 1993 Adobe Systems Incorporated. All Rights Reserved."
STARTPROPERTIES 39
FOUNDRY "FontForge"
FAMILY_NAME "Helvetica Neue"
WEIGHT_NAME "Book"
SLANT "R"
SETWIDTH_NAME "Normal"
ADD_STYLE_NAME ""
PIXEL_SIZE 18
POINT_SIZE 170
RESOLUTION_X 75
RESOLUTION_Y 75
SPACING "P"
AVERAGE_WIDTH 92
CHARSET_REGISTRY "ISO10646"
CHARSET_ENCODING "1"
FONTNAME_REGISTRY ""
CHARSET_COLLECTIONS "ISO8859-5 ISO10646-1"
FONT_NAME "HelveticaNeue"
FACE_NAME "Helvetica Neue"
COPYRIGHT "Copyright (c) 1981, 1982, 1983, 1989 and 1993, Linotype Library GmbH or its affiliated Linotype-Hell companies. All rights reserved."
FONT_VERSION "6.1d8e1"
FONT_ASCENT 14
FONT_DESCENT 4
UNDERLINE_POSITION -2
UNDERLINE_THICKNESS 1
X_HEIGHT 8
CAP_HEIGHT 12
RAW_ASCENT 800
RAW_DESCENT 200
NORM_SPACE 5
RELATIVE_WEIGHT 40
RELATIVE_SETWIDTH 50
SUPERSCRIPT_X 0
SUPERSCRIPT_Y 5
SUPERSCRIPT_SIZE 3
SUBSCRIPT_X 0
SUBSCRIPT_Y 5
SUBSCRIPT_SIZE 3
AVG_LOWERCASE_WIDTH 91
AVG_UPPERCASE_WIDTH 120
ENDPROPERTIES
CHARS 99
STARTCHAR controlBS
ENCODING 8
SWIDTH 0 0
DWIDTH 0 0
BBX 1 1 0 0
BITMAP
00
ENDCHAR
STARTCHAR controlHT
ENCODING 9
SWIDTH 278 0
DWIDTH 5 0
BBX 1 1 0 0
BITMAP
00
ENDCHAR
STARTCHAR controlCR
ENCODING 13
SWIDTH 278 0
DWIDTH 5 0
BBX 1 1 0 0
BITMAP
00
ENDCHAR
STARTCHAR controlGS
ENCODING 29
SWIDTH 0 0
DWIDTH 0 0
BBX 1 1 0 0
BITMAP
00
ENDCHAR
STARTCHAR space
ENCODING 32
SWIDTH 278 0
DWIDTH 5 0
BBX 1 1 0 0
BITMAP
00
ENDCHAR
STARTCHAR exclam
ENCODING 33
SWIDTH 259 0
DWIDTH 5 0
BBX 2 13 1 0
BITMAP
C0
C0
C0
C0
C0
C0
C0
C0
C0
80
00
C0
C0
ENDCHAR
STARTCHAR quotedbl
ENCODING 34
SWIDTH 426 0
DWIDTH 8 0
BBX 4 5 2 8
BITMAP
90
90
90
90
90
ENDCHAR
STARTCHAR numbersign
ENCODING 35
SWIDTH 556 0
DWIDTH 10 0
BBX 8 13 1 0
BITMAP
12
32
32
22
FF
26
24
24
FF
64
44
44
4C
ENDCHAR
STARTCHAR dollar
ENCODING 36
SWIDTH 556 0
DWIDTH 11 0
BBX 10 16 0 -2
BITMAP
0400
1E00
3F80
6480
64C0
6400
7400
1F00
0780
04C0
C4C0
C4C0
6480
3F00
0400
0400
ENDCHAR
STARTCHAR percent
ENCODING 37
SWIDTH 1000 0
DWIDTH 18 0
BBX 14 13 2 0
BITMAP
7010
9020
8860
88C0
8880
9100
7338
0224
0444
0C44
1844
1044
2038
ENDCHAR
STARTCHAR ampersand
ENCODING 38
SWIDTH 630 0
DWIDTH 11 0
BBX 11 13 0 0
BITMAP
1E00
3300
3300
3300
1E00
1C00
3C00
6EC0
C780
C380
C180
63C0
3E60
ENDCHAR
STARTCHAR quotesingle
ENCODING 39
SWIDTH 278 0
DWIDTH 5 0
BBX 1 5 2 8
BITMAP
80
80
80
80
80
ENDCHAR
STARTCHAR parenleft
ENCODING 40
SWIDTH 259 0
DWIDTH 5 0
BBX 4 17 1 -4
BITMAP
10
20
60
40
40
C0
C0
C0
C0
C0
C0
C0
40
40
20
20
10
ENDCHAR
STARTCHAR parenright
ENCODING 41
SWIDTH 259 0
DWIDTH 5 0
BBX 4 17 0 -4
BITMAP
80
40
40
60
20
30
30
30
30
30
30
30
20
20
60
40
80
ENDCHAR
STARTCHAR asterisk
ENCODING 42
SWIDTH 352 0
DWIDTH 6 0
BBX 5 5 1 8
BITMAP
20
A8
70
50
58
ENDCHAR
STARTCHAR plus
ENCODING 43
SWIDTH 600 0
DWIDTH 11 0
BBX 9 9 1 0
BITMAP
0800
0800
0800
0800
FF80
0800
0800
0800
0800
ENDCHAR
STARTCHAR comma
ENCODING 44
SWIDTH 278 0
DWIDTH 5 0
BBX 2 5 1 -3
BITMAP
C0
C0
40
40
80
ENDCHAR
STARTCHAR hyphen
ENCODING 45
SWIDTH 389 0
DWIDTH 7 0
BBX 5 1 1 4
BITMAP
F8
ENDCHAR
STARTCHAR period
ENCODING 46
SWIDTH 278 0
DWIDTH 5 0
BBX 2 2 1 0
BITMAP
C0
C0
ENDCHAR
STARTCHAR slash
ENCODING 47
SWIDTH 333 0
DWIDTH 6 0
BBX 6 13 0 0
BITMAP
04
0C
08
08
10
10
30
20
20
40
40
C0
80
ENDCHAR
STARTCHAR zero
ENCODING 48
SWIDTH 556 0
DWIDTH 10 0
BBX 8 13 1 0
BITMAP
3C
66
C3
C3
C3
C3
C3
C3
C3
C3
C3
66
3C
ENDCHAR
STARTCHAR one
ENCODING 49
SWIDTH 556 0
DWIDTH 10 0
BBX 5 13 2 0
BITMAP
18
18
38
F8
18
18
18
18
18
18
18
18
18
ENDCHAR
STARTCHAR two
ENCODING 50
SWIDTH 556 0
DWIDTH 10 0
BBX 9 13 0 0
BITMAP
1E00
3300
6180
6180
0180
0180
0700
0E00
1C00
3800
7000
6000
FF80
ENDCHAR
STARTCHAR three
ENCODING 51
SWIDTH 556 0
DWIDTH 10 0
BBX 9 13 0 0
BITMAP
3C00
6200
C300
C300
0300
0600
1E00
0300
0180
C180
C180
6300
3E00
ENDCHAR
STARTCHAR four
ENCODING 52
SWIDTH 556 0
DWIDTH 9 0
BBX 9 13 0 0
BITMAP
0200
0600
0E00
0A00
1A00
3200
2200
6200
C200
FF80
0200
0200
0200
ENDCHAR
STARTCHAR five
ENCODING 53
SWIDTH 556 0
DWIDTH 10 0
BBX 9 12 0 0
BITMAP
3F00
2000
2000
4000
7E00
6300
0180
0180
0180
C180
E300
3E00
ENDCHAR
STARTCHAR six
ENCODING 54
SWIDTH 556 0
DWIDTH 11 0
BBX 10 13 0 0
BITMAP
1E00
2300
6100
C080
C000
DF00
E180
C0C0
C0C0
C0C0
40C0
6180
1F00
ENDCHAR
STARTCHAR seven
ENCODING 55
SWIDTH 556 0
DWIDTH 10 0
BBX 9 12 0 0
BITMAP
FF80
0180
0300
0600
0400
0C00
0800
1800
1800
3000
3000
3000
ENDCHAR
STARTCHAR eight
ENCODING 56
SWIDTH 556 0
DWIDTH 11 0
BBX 9 13 1 0
BITMAP
3C00
6200
C300
C300
C300
6300
3E00
6380
C180
C180
C180
6380
3E00
ENDCHAR
STARTCHAR nine
ENCODING 57
SWIDTH 556 0
DWIDTH 10 0
BBX 9 13 0 0
BITMAP
3E00
6300
C100
C180
C180
C180
6380
3D80
0180
0180
C300
6300
3C00
ENDCHAR
STARTCHAR colon
ENCODING 58
SWIDTH 278 0
DWIDTH 5 0
BBX 2 9 1 0
BITMAP
C0
C0
00
00
00
00
00
C0
C0
ENDCHAR
STARTCHAR semicolon
ENCODING 59
SWIDTH 278 0
DWIDTH 5 0
BBX 2 12 1 -3
BITMAP
C0
C0
00
00
00
00
00
C0
C0
40
40
80
ENDCHAR
STARTCHAR less
ENCODING 60
SWIDTH 600 0
DWIDTH 11 0
BBX 9 9 1 0
BITMAP
0080
0300
1C00
7000
8000
7000
1C00
0300
0080
ENDCHAR
STARTCHAR equal
ENCODING 61
SWIDTH 600 0
DWIDTH 11 0
BBX 9 5 1 2
BITMAP
FF80
0000
0000
0000
FF80
ENDCHAR
STARTCHAR greater
ENCODING 62
SWIDTH 600 0
DWIDTH 11 0
BBX 9 9 1 0
BITMAP
8000
6000
1C00
0700
0180
0700
1C00
6000
8000
ENDCHAR
STARTCHAR question
ENCODING 63
SWIDTH 556 0
DWIDTH 10 0
BBX 8 13 1 0
BITMAP
3E
63
C3
C3
03
06
0C
18
18
18
00
18
18
ENDCHAR
STARTCHAR at
ENCODING 64
SWIDTH 800 0
DWIDTH 14 0
BBX 12 13 1 0
BITMAP
0F80
3040
4020
4750
8890
9090
9090
9110
9120
5360
4DC0
3070
0F80
ENDCHAR
STARTCHAR A
ENCODING 65
SWIDTH 648 0
DWIDTH 12 0
BBX 12 13 0 0
BITMAP
0600
0E00
0B00
0B00
1980
1180
3180
30C0
3FC0
6040
6060
C060
C030
ENDCHAR
STARTCHAR B
ENCODING 66
SWIDTH 685 0
DWIDTH 13 0
BBX 11 13 1 0
BITMAP
FF00
C080
C0C0
C0C0
C0C0
C180
FF80
C0E0
C060
C060
C060
C0E0
FF80
ENDCHAR
STARTCHAR C
ENCODING 67
SWIDTH 722 0
DWIDTH 13 0
BBX 12 13 1 0
BITMAP
0F80
30E0
6060
4020
C000
C000
C000
C000
C030
4020
6060
30C0
1F80
ENDCHAR
STARTCHAR D
ENCODING 68
SWIDTH 704 0
DWIDTH 13 0
BBX 11 13 1 0
BITMAP
FF00
C180
C0C0
C060
C060
C060
C060
C060
C060
C040
C0C0
C180
FF00
ENDCHAR
STARTCHAR E
ENCODING 69
SWIDTH 611 0
DWIDTH 11 0
BBX 9 13 1 0
BITMAP
FF80
C000
C000
C000
C000
C000
FF80
C000
C000
C000
C000
C000
FF80
ENDCHAR
STARTCHAR F
ENCODING 70
SWIDTH 574 0
DWIDTH 10 0
BBX 9 13 1 0
BITMAP
FF80
C000
C000
C000
C000
C000
FF00
C000
C000
C000
C000
C000
C000
ENDCHAR
STARTCHAR G
ENCODING 71
SWIDTH 759 0
DWIDTH 14 0
BBX 12 13 1 0
BITMAP
0FC0
3060
6030
4030
C000
C000
C3F0
C030
C030
4030
6070
30F0
1F10
ENDCHAR
STARTCHAR H
ENCODING 72
SWIDTH 722 0
DWIDTH 13 0
BBX 11 13 1 0
BITMAP
C060
C060
C060
C060
C060
C060
FFE0
C060
C060
C060
C060
C060
C060
ENDCHAR
STARTCHAR I
ENCODING 73
SWIDTH 259 0
DWIDTH 5 0
BBX 2 13 1 0
BITMAP
C0
C0
C0
C0
C0
C0
C0
C0
C0
C0
C0
C0
C0
ENDCHAR
STARTCHAR J
ENCODING 74
SWIDTH 519 0
DWIDTH 9 0
BBX 8 13 0 0
BITMAP
03
03
03
03
03
03
03
03
03
C3
C3
E6
7C
ENDCHAR
STARTCHAR K
ENCODING 75
SWIDTH 667 0
DWIDTH 12 0
BBX 11 13 1 0
BITMAP
C0E0
C180
C300
C600
CC00
D800
FC00
E600
C300
C300
C180
C0C0
C0E0
ENDCHAR
STARTCHAR L
ENCODING 76
SWIDTH 556 0
DWIDTH 10 0
BBX 9 13 1 0
BITMAP
C000
C000
C000
C000
C000
C000
C000
C000
C000
C000
C000
C000
FF80
ENDCHAR
STARTCHAR M
ENCODING 77
SWIDTH 871 0
DWIDTH 16 0
BBX 13 13 1 0
BITMAP
E038
E038
E038
F078
D058
D058
C898
C898
CD98
C518
C518
C718
C218
ENDCHAR
STARTCHAR N
ENCODING 78
SWIDTH 722 0
DWIDTH 13 0
BBX 11 13 1 0
BITMAP
C060
E060
F060
D060
D860
CC60
C460
C660
C360
C160
C1E0
C0E0
C060
ENDCHAR
STARTCHAR O
ENCODING 79
SWIDTH 760 0
DWIDTH 14 0
BBX 12 13 1 0
BITMAP
1F80
30C0
6060
4020
C030
C030
C030
C030
C030
4020
6060
30C0
1F80
ENDCHAR
STARTCHAR P
ENCODING 80
SWIDTH 648 0
DWIDTH 12 0
BBX 10 13 1 0
BITMAP
FF00
C180
C0C0
C0C0
C0C0
C0C0
C180
FF00
C000
C000
C000
C000
C000
ENDCHAR
STARTCHAR Q
ENCODING 81
SWIDTH 760 0
DWIDTH 14 0
BBX 12 14 1 -1
BITMAP
1F80
30C0
6060
4020
C030
C030
C030
C030
C030
4220
63E0
30C0
1FE0
0030
ENDCHAR
STARTCHAR R
ENCODING 82
SWIDTH 685 0
DWIDTH 12 0
BBX 10 13 1 0
BITMAP
FF00
C0C0
C0C0
C0C0
C0C0
C180
FF00
C180
C0C0
C0C0
C0C0
C0C0
C0C0
ENDCHAR
STARTCHAR S
ENCODING 83
SWIDTH 648 0
DWIDTH 12 0
BBX 11 13 0 0
BITMAP
1F80
30C0
6060
6060
7000
3E00
1FC0
01E0
0060
C060
C060
70C0
3F80
ENDCHAR
STARTCHAR T
ENCODING 84
SWIDTH 574 0
DWIDTH 10 0
BBX 10 13 0 0
BITMAP
FFC0
0C00
0C00
0C00
0C00
0C00
0C00
0C00
0C00
0C00
0C00
0C00
0C00
ENDCHAR
STARTCHAR U
ENCODING 85
SWIDTH 722 0
DWIDTH 13 0
BBX 11 13 1 0
BITMAP
C060
C060
C060
C060
C060
C060
C060
C060
C060
C060
C060
60C0
1F00
ENDCHAR
STARTCHAR V
ENCODING 86
SWIDTH 611 0
DWIDTH 11 0
BBX 11 13 0 0
BITMAP
C060
4060
60C0
60C0
2080
3180
3180
1100
1B00
1B00
0A00
0E00
0E00
ENDCHAR
STARTCHAR W
ENCODING 87
SWIDTH 926 0
DWIDTH 17 0
BBX 16 13 0 0
BITMAP
C181
41C3
61C3
6343
6342
2266
2266
3624
3624
143C
141C
1C18
1818
ENDCHAR
STARTCHAR X
ENCODING 88
SWIDTH 611 0
DWIDTH 11 0
BBX 11 13 0 0
BITMAP
E060
60C0
3180
1100
1B00
0E00
0E00
0E00
1B00
3180
3180
60C0
C060
ENDCHAR
STARTCHAR Y
ENCODING 89
SWIDTH 648 0
DWIDTH 12 0
BBX 12 13 0 0
BITMAP
C030
6060
30C0
30C0
1980
0D00
0F00
0600
0600
0600
0600
0600
0600
ENDCHAR
STARTCHAR Z
ENCODING 90
SWIDTH 611 0
DWIDTH 11 0
BBX 11 13 0 0
BITMAP
7FC0
00C0
0180
0180
0300
0600
0C00
0C00
1800
3000
7000
6000
FFE0
ENDCHAR
STARTCHAR bracketleft
ENCODING 91
SWIDTH 259 0
DWIDTH 5 0
BBX 3 16 2 -3
BITMAP
E0
80
80
80
80
80
80
80
80
80
80
80
80
80
80
E0
ENDCHAR
STARTCHAR backslash
ENCODING 92
SWIDTH 333 0
DWIDTH 6 0
BBX 6 13 0 0
BITMAP
80
C0
40
40
20
20
30
10
10
08
08
0C
04
ENDCHAR
STARTCHAR bracketright
ENCODING 93
SWIDTH 259 0
DWIDTH 5 0
BBX 3 16 0 -3
BITMAP
E0
20
20
20
20
20
20
20
20
20
20
20
20
20
20
E0
ENDCHAR
STARTCHAR asciicircum
ENCODING 94
SWIDTH 600 0
DWIDTH 11 0
BBX 9 8 1 5
BITMAP
0800
1C00
1400
2600
2200
4300
4100
8180
ENDCHAR
STARTCHAR underscore
ENCODING 95
SWIDTH 500 0
DWIDTH 9 0
BBX 9 1 0 -2
BITMAP
FF80
ENDCHAR
STARTCHAR grave
ENCODING 96
SWIDTH 222 0
DWIDTH 4 0
BBX 3 2 0 11
BITMAP
C0
60
ENDCHAR
STARTCHAR a
ENCODING 97
SWIDTH 537 0
DWIDTH 10 0
BBX 10 9 0 0
BITMAP
3F00
6180
C180
0380
7F80
C180
C180
C380
7DC0
ENDCHAR
STARTCHAR b
ENCODING 98
SWIDTH 593 0
DWIDTH 11 0
BBX 9 13 1 0
BITMAP
C000
C000
C000
C000
DE00
E300
C180
C180
C180
C180
C180
E300
DE00
ENDCHAR
STARTCHAR c
ENCODING 99
SWIDTH 537 0
DWIDTH 10 0
BBX 9 9 0 0
BITMAP
3E00
6300
C100
C080
C000
C180
C100
6300
3E00
ENDCHAR
STARTCHAR d
ENCODING 100
SWIDTH 593 0
DWIDTH 11 0
BBX 9 13 1 0
BITMAP
0180
0180
0180
0180
3D80
6380
C180
C180
C180
C180
C180
6380
3D80
ENDCHAR
STARTCHAR e
ENCODING 101
SWIDTH 537 0
DWIDTH 10 0
BBX 9 9 0 0
BITMAP
3E00
6300
C180
C180
FF80
C000
C180
6300
3E00
ENDCHAR
STARTCHAR f
ENCODING 102
SWIDTH 296 0
DWIDTH 5 0
BBX 6 13 0 0
BITMAP
1C
30
30
30
FC
30
30
30
30
30
30
30
30
ENDCHAR
STARTCHAR g
ENCODING 103
SWIDTH 574 0
DWIDTH 10 0
BBX 9 13 0 -4
BITMAP
3E80
6180
C080
C080
C080
C080
C180
6180
3E80
0080
C180
E100
7E00
ENDCHAR
STARTCHAR h
ENCODING 104
SWIDTH 556 0
DWIDTH 10 0
BBX 8 13 1 0
BITMAP
C0
C0
C0
C0
DE
E3
C3
C3
C3
C3
C3
C3
C3
ENDCHAR
STARTCHAR i
ENCODING 105
SWIDTH 222 0
DWIDTH 4 0
BBX 2 13 1 0
BITMAP
C0
C0
00
00
C0
C0
C0
C0
C0
C0
C0
C0
C0
ENDCHAR
STARTCHAR j
ENCODING 106
SWIDTH 222 0
DWIDTH 4 0
BBX 3 16 0 -3
BITMAP
60
60
00
60
60
60
60
60
60
60
60
60
60
60
60
C0
ENDCHAR
STARTCHAR k
ENCODING 107
SWIDTH 519 0
DWIDTH 9 0
BBX 9 13 1 0
BITMAP
C000
C000
C000
C000
C700
CC00
D800
F800
EC00
CC00
C600
C300
C380
ENDCHAR
STARTCHAR l
ENCODING 108
SWIDTH 222 0
DWIDTH 4 0
BBX 2 13 1 0
BITMAP
C0
C0
C0
C0
C0
C0
C0
C0
C0
C0
C0
C0
C0
ENDCHAR
STARTCHAR m
ENCODING 109
SWIDTH 853 0
DWIDTH 16 0
BBX 14 9 1 0
BITMAP
DE78
E38C
C30C
C30C
C30C
C30C
C30C
C30C
C30C
ENDCHAR
STARTCHAR n
ENCODING 110
SWIDTH 556 0
DWIDTH 10 0
BBX 8 9 1 0
BITMAP
DE
E3
C3
C3
C3
C3
C3
C3
C3
ENDCHAR
STARTCHAR o
ENCODING 111
SWIDTH 574 0
DWIDTH 10 0
BBX 8 9 1 0
BITMAP
3C
66
C3
C3
C3
C3
C3
66
3C
ENDCHAR
STARTCHAR p
ENCODING 112
SWIDTH 593 0
DWIDTH 11 0
BBX 9 13 1 -4
BITMAP
DE00
E300
C180
C180
C180
C180
C180
E300
DE00
C000
C000
C000
C000
ENDCHAR
STARTCHAR q
ENCODING 113
SWIDTH 593 0
DWIDTH 11 0
BBX 8 13 1 -4
BITMAP
3D
63
C1
C1
C1
C1
C1
63
3D
01
01
01
01
ENDCHAR
STARTCHAR r
ENCODING 114
SWIDTH 333 0
DWIDTH 6 0
BBX 5 10 1 0
BITMAP
D8
F8
E0
C0
C0
C0
C0
C0
C0
C0
ENDCHAR
STARTCHAR s
ENCODING 115
SWIDTH 500 0
DWIDTH 9 0
BBX 8 9 0 0
BITMAP
3E
63
63
78
3F
07
C3
E3
3E
ENDCHAR
STARTCHAR t
ENCODING 116
SWIDTH 315 0
DWIDTH 6 0
BBX 5 12 0 0
BITMAP
30
30
30
F8
30
30
30
30
30
30
30
38
ENDCHAR
STARTCHAR u
ENCODING 117
SWIDTH 556 0
DWIDTH 10 0
BBX 8 9 1 0
BITMAP
C3
C3
C3
C3
C3
C3
C3
C7
7B
ENDCHAR
STARTCHAR v
ENCODING 118
SWIDTH 500 0
DWIDTH 9 0
BBX 9 9 0 0
BITMAP
C180
4100
6300
2200
3200
3600
1400
1C00
0C00
ENDCHAR
STARTCHAR w
ENCODING 119
SWIDTH 758 0
DWIDTH 14 0
BBX 13 9 0 0
BITMAP
C308
4318
6718
6590
24B0
34B0
3CA0
18E0
1860
ENDCHAR
STARTCHAR x
ENCODING 120
SWIDTH 518 0
DWIDTH 9 0
BBX 9 9 0 0
BITMAP
E180
2300
3600
1C00
1C00
1600
3600
6300
C180
ENDCHAR
STARTCHAR y
ENCODING 121
SWIDTH 500 0
DWIDTH 9 0
BBX 9 13 0 -4
BITMAP
C180
4100
6300
2300
2200
3600
1400
1C00
0C00
0800
1800
9000
7000
ENDCHAR
STARTCHAR z
ENCODING 122
SWIDTH 480 0
DWIDTH 9 0
BBX 8 9 0 0
BITMAP
7F
03
06
0C
18
30
70
60
FF
ENDCHAR
STARTCHAR braceleft
ENCODING 123
SWIDTH 333 0
DWIDTH 6 0
BBX 5 17 1 -4
BITMAP
18
20
20
20
20
20
20
60
80
60
20
20
20
20
20
20
18
ENDCHAR
STARTCHAR bar
ENCODING 124
SWIDTH 222 0
DWIDTH 4 0
BBX 1 18 1 -4
BITMAP
80
80
80
80
80
80
80
80
80
80
80
80
80
80
80
80
80
80
ENDCHAR
STARTCHAR braceright
ENCODING 125
SWIDTH 333 0
DWIDTH 6 0
BBX 4 17 1 -4
BITMAP
C0
20
20
20
20
20
20
30
10
30
20
20
20
20
20
20
C0
ENDCHAR
STARTCHAR asciitilde
ENCODING 126
SWIDTH 600 0
DWIDTH 11 0
BBX 9 3 1 3
BITMAP
7100
C980
8700
ENDCHAR
ENDFONT
